<svg xmlns="http://www.w3.org/2000/svg" viewBox="0 0 784.49 241.34"><defs><style>.cls-1,.cls-2,.cls-4{fill:none;}.cls-1,.cls-2,.cls-3,.cls-4,.cls-5{stroke:#231f20;stroke-linecap:round;}.cls-1{stroke-miterlimit:10;}.cls-1,.cls-2,.cls-3{stroke-width:6px;}.cls-2,.cls-3,.cls-4,.cls-5{stroke-linejoin:round;}.cls-3,.cls-5,.cls-7{fill:#231f20;}.cls-4,.cls-5{stroke-width:3px;}.cls-6{fill:#fff;}</style></defs><title>Asset 2as3</title><g id="Layer_2" data-name="Layer 2"><g id="Layer_1-2" data-name="Layer 1"><path class="cls-1" d="M117.49,47.77A71.21,71.21,0,0,1,144.29,62"/><path class="cls-1" d="M136.88,85.67C132.18,70.26,146.7,60,146.7,60a12.31,12.31,0,0,1,20.17,9.47c0,3-3.38,7.53-6.39,10.57"/><path class="cls-2" d="M223.9,138.42c0-18.22-6.87-32-22.87-32a6.1,6.1,0,0,1-6-4.89A11.41,11.41,0,0,0,193.86,98c-3.1-5.26-9.92-8.11-19-6.24a11.05,11.05,0,0,1-12.19-5.89l-.05-.1a14,14,0,0,1-1.34-5.41"/><path class="cls-2" d="M223.76,137.42c-12.82,12.37-31,14.29-40.69,4.29"/><path class="cls-2" d="M225.9,155c-5.72-2.57-7-13.58-2-16.57"/><path class="cls-2" d="M170.4,157.53a36.78,36.78,0,0,1-3-9.42"/><circle class="cls-3" cx="189.65" cy="101.41" r="3.1"/><polygon class="cls-2" points="182.29 101.04 188.94 98.22 188.75 104.28 182.29 101.04"/><path class="cls-2" d="M94.66,159.69a29.51,29.51,0,0,1-2.3-11.44"/><circle class="cls-4" cx="151.41" cy="90.15" r="6.37"/><ellipse class="cls-5" cx="150.64" cy="87.1" rx="2.45" ry="2.72"/><circle class="cls-6" cx="148.67" cy="89.07" r="1.97"/><path class="cls-2" d="M117,105a32.19,32.19,0,0,1-1.47-9.66c0-15.17,10.51-28.06,25.13-32.7"/><path class="cls-2" d="M119.42,105.88c11.12,2.92,20.32,12.65,24.85,25.65"/><path class="cls-2" d="M200.05,226s0,0,0,0a122.71,122.71,0,0,0,50.07-70.38,119.49,119.49,0,0,0,3.85-30.2C254,64,207.59,13.1,147.12,4.34A129.34,129.34,0,0,0,128.53,3C54.32,3,5.21,70.56,3.07,125.41c-1.08,28,10.21,49.3,14.28,56.76a120.55,120.55,0,0,0,12.88,19h0"/><path class="cls-2" d="M3.47,189C36.93,206.65,65.63,212.29,86,214.12c28.51,2.55,43.1-2.16,72.49,1.73a200.42,200.42,0,0,1,69.15,22.49"/><line class="cls-2" x1="147.12" y1="4.34" x2="67.01" y2="119.63"/><polyline class="cls-2" points="91.5 159.42 94.53 159.35 170.4 157.53 250.13 155.61"/><path class="cls-2" d="M92.36,151.9A33.15,33.15,0,1,1,67,119.63,33.28,33.28,0,0,1,92.36,151.9Z"/><path class="cls-7" d="M354.44,157.77h47.42v14.69H329.93l48.51-88.89H337.87V68.87H403Z"/><path class="cls-7" d="M509.25,148.79H469.66l-10.31,23.67h-15L490.08,68.87l44.15,103.59H519ZM503.56,135l-13.72-33.14L475.47,135Z"/><path class="cls-7" d="M590.37,110.2l38.26-41.33h19.8L604,115.77l44.69,56.69H628.82l-35.4-46.09-3,3.22v42.87H575.53V68.87h14.84Z"/><path class="cls-7" d="M685.4,120.25A50.27,50.27,0,0,1,700.07,84q14.61-15.14,35.12-15.14,20.26,0,34.75,15.27a51.3,51.3,0,0,1,14.55,36.69q0,21.54-14.61,36.56t-35.43,15.07q-18.36,0-33-13.39Q685.4,144.25,685.4,120.25Zm14.42.19q0,16.58,10.56,27.24t24.26,10.68a33.26,33.26,0,0,0,25.17-10.87q10.26-11,10.25-26.79,0-16-10.13-26.79a34.08,34.08,0,0,0-49.91,0Q699.82,104.65,699.82,120.44Z"/></g></g></svg>